<?xml version="1.0" encoding="UTF-8"?> <!-- Generator: Adobe Illustrator 16.0.0, SVG Export Plug-In . SVG Version: 6.00 Build 0) --> <svg xmlns="http://www.w3.org/2000/svg" xmlns:xlink="http://www.w3.org/1999/xlink" id="Layer_1" x="0px" y="0px" width="500px" height="500px" viewBox="0 0 500 500" xml:space="preserve"> <g> <g> <path fill="#211C1C" d="M247.585,45.16L117.178,283.188H377.98L247.585,45.16z M247.585,111.947l73.885,134.863H173.696 L247.585,111.947z"></path> </g> </g> <g> <polygon points="266.85,367.842 266.85,319.598 258.984,319.598 258.984,338.551 226.173,338.551 226.173,319.598 218.308,319.598 218.308,367.842 226.173,367.842 226.173,345.891 258.984,345.891 258.984,367.842 "></polygon> <polygon points="294.491,346.191 319.137,346.191 319.137,338.851 294.491,338.851 294.491,326.938 330.823,326.938 330.823,319.598 286.625,319.598 286.625,367.842 332.548,367.842 332.548,360.498 294.491,360.498 "></polygon> <polygon points="380.64,348.065 359.663,319.598 351.125,319.598 351.125,367.842 358.989,367.842 358.989,330.535 380.64,359.825 402.364,330.535 402.364,367.842 410.229,367.842 410.229,319.598 401.765,319.598 "></polygon> <path d="M469.112,319.598l-16.97,19.777c-2.821-3.296-5.617-6.63-8.389-10c-2.773-3.371-5.659-6.631-8.655-9.777h-9.963 l22.998,27.118v21.126h7.867v-21.126l22.996-27.118H469.112z"></path> <polygon points="135.83,360.498 101.745,360.498 101.745,319.598 93.879,319.598 93.879,367.842 135.83,367.842 "></polygon> <path d="M193.323,366.154c3.92-1.471,7.455-3.681,10.602-6.629l-3.896-6.366c-2.348,2.746-5.219,4.769-8.615,6.067 c-3.398,1.3-6.843,1.947-10.338,1.947c-2.498,0-5.092-0.385-7.79-1.162c-2.697-0.772-5.146-1.909-7.343-3.406 c-2.197-1.499-4.006-3.346-5.43-5.543s-2.136-4.745-2.136-7.643c0-2.847,0.712-5.369,2.136-7.565 c1.424-2.197,3.233-4.045,5.43-5.544c2.197-1.498,4.646-2.633,7.343-3.41c2.697-0.772,5.292-1.16,7.79-1.16 c3.096,0,6.118,0.487,9.064,1.462c2.947,0.974,5.593,2.51,7.941,4.607l3.895-6.144c-1.348-1.2-2.858-2.248-4.531-3.147 c-1.674-0.898-3.42-1.634-5.243-2.209c-1.823-0.574-3.685-1.011-5.581-1.311c-1.898-0.3-3.747-0.45-5.544-0.45 c-3.545,0-7.09,0.562-10.636,1.686c-3.547,1.124-6.74,2.762-9.582,4.908c-2.84,2.147-5.149,4.756-6.928,7.828 c-1.78,3.071-2.668,6.554-2.668,10.449c0,3.896,0.889,7.392,2.668,10.488c1.779,3.097,4.089,5.719,6.928,7.866 c2.841,2.147,6.034,3.784,9.582,4.907c3.546,1.125,7.09,1.686,10.636,1.686C185.321,368.365,189.402,367.629,193.323,366.154z"></path> <g> <path d="M49.917,319.607l-26.335,48.069H76.25L49.917,319.607z M49.917,333.095l14.921,27.235H34.996L49.917,333.095z"></path> </g> </g> </svg> 